# xmcd
#
# Track frame offsets:
#	150
#	17918
#	33474
#	52616
#	68833
#	88004
#	105946
#	123470
#	141462
#	157874
#	175950
#	196812
#	212882
#	230519
#
# Disc length: 3316 seconds
#
# Revision: 1
# Processed by: cddbd v1.5.2PL0 Copyright (c) Steve Scherf et al.
# Submitted via: audiograbber 1.83.01
#
DISCID=b80cf20e
DTITLE=Various Artist - Sd154
DYEAR=2007
DGENRE=Karaoke
TTITLE0=Brad Paisley - Ticks 
TTITLE1=Terri Clark - Dirty Girl 
TTITLE2=George Strait - Wrapped
TTITLE3=Rodney Atkins - These Are My People
TTITLE4=Wreckers - Tennessee
TTITLE5=Jason Michael Carroll - Livin' Our Love Song 
TTITLE6=Big And Rich - Lost In This Moment 
TTITLE7=Miranda Lambert - Famous In A Small Town 
TTITLE8=Trent Tomlinson - Just Might Have Her Radio On 
TTITLE9=Darryl Worley - Living In The Here And Now 
TTITLE10=Jamie O'neal - God Don't Make Mistakes 
TTITLE11=Flynnville Train - Last Good Time 
TTITLE12=Lance Miller - She Really Loves Me 
TTITLE13=K. Rogers and  D. Henley - Calling Me 
EXTD=
EXTT0=
EXTT1=
EXTT2=
EXTT3=
EXTT4=
EXTT5=
EXTT6=
EXTT7=
EXTT8=
EXTT9=
EXTT10=
EXTT11=
EXTT12=
EXTT13=
PLAYORDER=
